<?xml version="1.0" encoding="iso-8859-1"?>
<!-- Generator: Adobe Illustrator 19.0.0, SVG Export Plug-In . SVG Version: 6.00 Build 0)  -->
<svg version="1.1" id="Layer_1" xmlns="http://www.w3.org/2000/svg" xmlns:xlink="http://www.w3.org/1999/xlink" x="0px" y="0px"
	 viewBox="0 0 512 512" style="enable-background:new 0 0 512 512;" xml:space="preserve">
<g>
	<g>
		<g>
			<path d="M454.101,362.229C489.024,339.787,512,302.283,512,266.677c0-53.568-51.2-103.403-124.544-121.173
				c-3.947-0.981-8.021,0.384-10.645,3.456c-2.603,3.072-3.264,7.36-1.685,11.072c5.888,13.931,8.875,28.267,8.875,42.645
				c0,68.48-66.688,129.664-158.613,145.472c-4.459,0.768-7.979,4.288-8.704,8.768c-0.747,4.48,1.429,8.939,5.419,11.115
				c32.085,17.429,69.632,26.645,108.544,26.645c8.512,0,17.195-0.448,26.325-1.344c39.552,34.347,114.901,43.989,115.584,43.989
				c9.963,0,18.091-7.893,18.091-17.6c0-4.437-1.749-8.725-4.779-11.904C474.432,395.232,458.816,374.731,454.101,362.229z"/>
			<path d="M362.667,202.677c0-69.376-83.051-128-181.333-128S0,133.301,0,202.677c0,35.584,22.976,73.109,57.899,95.531
				c-4.715,12.501-20.331,33.003-31.787,45.589c-0.213,0.235-0.427,0.491-0.619,0.747c-2.688,3.179-4.16,7.083-4.16,11.179
				c0,9.707,8.107,17.6,18.091,17.6c0.683,0,76.032-9.643,115.584-43.989c9.152,0.896,17.813,1.344,26.325,1.344
				C279.616,330.677,362.667,272.075,362.667,202.677z"/>
		</g>
	</g>
</g>
<g>
</g>
<g>
</g>
<g>
</g>
<g>
</g>
<g>
</g>
<g>
</g>
<g>
</g>
<g>
</g>
<g>
</g>
<g>
</g>
<g>
</g>
<g>
</g>
<g>
</g>
<g>
</g>
<g>
</g>
</svg>
