<svg xmlns="http://www.w3.org/2000/svg" viewBox="0 0 18.07 17.99"><path fill="#01a5fb" d="M4.86 0h-1.8A3.06 3.06 0 000 3.07v4.86h4.86a3.06 3.06 0 003.07-3.07V2.98A3.04 3.04 0 004.86 0z"/><path fill="#e92500" d="M15 0h-1.79a3.06 3.06 0 00-3.07 3.07v4.86H15a3.06 3.06 0 003.07-3.07V2.98A3.04 3.04 0 0015 0z"/><path fill="#5fbf2c" d="M4.86 10.06h-1.8A3.06 3.06 0 000 13.13v4.86h4.86a3.06 3.06 0 003.07-3.07v-1.8a3.06 3.06 0 00-3.07-3.06z"/><path fill="#ffc400" d="M15 10.06h-1.79a3.06 3.06 0 00-3.07 3.07v4.86H15a3.06 3.06 0 003.07-3.07v-1.8A3.06 3.06 0 0015 10.07z"/></svg>